<svg width="115" height="129" viewBox="0 0 115 129" fill="none" xmlns="http://www.w3.org/2000/svg">
<path d="M53.7069 2.41692C48.4143 6.37595 44.0385 11.5019 41.8298 16.4194C40.6629 18.9198 40.8296 19.795 42.8716 21.2119C48.0392 24.7959 51.8316 30.0051 54.8321 37.7148C55.4155 39.2151 56.1656 42.2573 56.499 44.716C57.0408 48.5917 57.1658 48.4667 58.3744 42.924C60.3747 33.7974 62.6668 28.8799 67.0842 24.3791C68.7095 22.7122 70.6682 21.0035 71.4183 20.5868C72.1685 20.17 72.7519 19.5033 72.7519 19.0448C72.7519 17.9613 70.1681 12.5437 68.5428 10.1266C67.7927 9.04308 66.4174 7.29278 65.4589 6.2926C63.7503 4.41727 58.0827 -0.000171313 57.3742 -0.000171313C57.1658 -0.000171313 55.4989 1.08335 53.7069 2.41692Z" fill="url(#paint0_linear_2101_449-427553)"/>
<path d="M0.656006 18.7087C0.656006 18.917 0.947724 19.2921 1.23944 19.5838C2.78138 20.834 6.07362 29.8773 6.07362 32.7945C6.07362 33.6696 6.36534 36.045 6.74041 38.1287C7.32384 41.296 7.36552 43.4213 7.0738 51.4644C6.57371 66.217 6.61539 80.1361 7.2405 84.3869C8.94913 96.3473 13.1582 104.932 21.493 113.392C29.6194 121.685 38.496 125.852 51.915 127.728C56.8325 128.395 56.6659 128.395 64.834 127.144C66.7093 126.811 72.0852 124.852 73.0854 124.06C73.3355 123.852 73.5855 123.519 73.5855 123.352C73.5855 123.144 71.7935 122.435 69.5848 121.727C61.7084 119.185 58.1244 115.684 54.3321 106.891C54.1654 106.432 53.6237 104.015 53.1652 101.515C52.4151 97.4308 52.3318 95.0971 52.3318 79.761C52.3318 61.4662 52.4151 62.4663 50.123 55.2984C49.6229 53.7148 49.0812 52.3396 48.9145 52.2145C48.7061 52.1312 48.5811 51.7144 48.5811 51.3394C48.5811 50.3809 45.9973 45.4217 43.6636 41.8794C39.0794 34.9615 30.3696 27.6269 22.2015 23.8345C16.7005 21.2508 14.2417 20.5006 6.9071 19.1671C2.03125 18.2502 0.656006 18.1669 0.656006 18.7087Z" fill="url(#paint1_linear_2101_449-015385)"/>
<path d="M106.425 18.5848C106.3 18.7099 104.716 19.0433 102.924 19.3766C91.7138 21.3353 83.6707 25.5861 76.3778 33.2958C72.8355 37.1298 71.0435 39.7135 68.7097 44.381C67.0428 47.715 66.2926 49.5903 65.6675 51.8824C65.4592 52.5491 65.1258 53.6743 64.8757 54.3828C63.4171 58.7169 62.2086 65.7181 61.2501 75.9699C60.5416 83.0128 60.5416 83.763 61.2501 90.7642C61.6668 94.8066 62.2503 98.974 62.5837 99.9741C62.9171 101.016 63.1671 102.183 63.1671 102.6C63.1671 104.267 65.5425 108.226 67.9596 110.643C74.3774 117.019 82.2121 118.311 92.3389 114.685C96.4229 113.226 101.132 108.809 103.924 103.766C105.55 100.891 107.55 94.7649 108.133 91.0142C108.383 89.4306 108.758 87.1802 108.967 86.0134C109.467 83.3462 109.217 71.0524 108.675 67.7185C108.133 64.8013 107.258 50.007 107.258 45.2979C107.3 40.8387 108.092 33.9209 108.842 31.7538C109.175 30.7953 109.425 29.6284 109.425 29.2117C109.425 28.1699 111.842 22.6689 113.218 20.5435C113.843 19.585 114.259 18.7099 114.093 18.5848C113.801 18.2514 106.716 18.2514 106.425 18.5848Z" fill="url(#paint2_linear_2101_449-514024)"/>
<defs>
<linearGradient id="paint0_linear_2101_449-427553" x1="56.9281" y1="47.3887" x2="56.9281" y2="-0.000171661" gradientUnits="userSpaceOnUse">
<stop stop-color="white"/>
<stop offset="1" stop-color="#F1F1F1"/>
</linearGradient>
<linearGradient id="paint1_linear_2101_449-015385" x1="37.1208" y1="128.172" x2="37.1208" y2="18.3718" gradientUnits="userSpaceOnUse">
<stop stop-color="#4EE485"/>
<stop offset="1" stop-color="#57EC8E"/>
</linearGradient>
<linearGradient id="paint2_linear_2101_449-514024" x1="87.4242" y1="116.682" x2="87.4242" y2="18.3348" gradientUnits="userSpaceOnUse">
<stop stop-color="#E43636"/>
<stop offset="1" stop-color="#E44E4E"/>
</linearGradient>
</defs>
</svg>