<svg width="128" height="128" viewBox="0 0 128 128" fill="none" xmlns="http://www.w3.org/2000/svg">
<path d="M47.7 107.1C42.2 102.1 40.5 91.4002 42.8 83.7002C46.8 88.6002 52.4 90.1002 58.2 91.0002C67.1 92.3002 75.8 91.8002 84.1 87.8002L86.9 86.1002C87.9784 89.7665 87.8619 93.6808 86.5675 97.2765C85.2731 100.872 82.8678 103.963 79.7 106.1L74.2 109.9C68.6 113.7 67 118.1 69.2 124.6L69.4 125.3C66.6637 124.178 64.3532 122.217 62.8 119.7C61.1194 117.146 60.2162 114.158 60.2 111.1C60.2 109.6 60.2 108.1 60 106.6C59.5 102.9 57.8 101.3 54.5 101.2C51.2 101.1 48.6 103.2 47.9 106.4L47.7 107.1ZM16 82.4002C16 82.4002 32.5 74.4002 49 74.4002L61.4 36.1002C61.9 34.1002 63.2 32.9002 64.7 32.9002C66.3 32.9002 67.7 34.2002 68.1 36.1002L80.5 74.4002C100.1 74.4002 113.5 82.4002 113.5 82.4002L85.5 6.4002C84.7 4.1002 83.3 2.7002 81.5 2.7002H48C46.2 2.7002 44.9 4.1002 44 6.4002L16 82.4002Z" fill="white"/>
<path d="M47.7004 107.1C42.2004 102.1 40.5004 91.4002 42.8004 83.7002C46.8004 88.6002 52.4004 90.1002 58.2004 91.0002C67.1004 92.3002 75.8004 91.8002 84.1004 87.8002L86.9004 86.1002C87.9788 89.7665 87.8623 93.6808 86.5679 97.2765C85.2734 100.872 82.8682 103.963 79.7004 106.1L74.2004 109.9C68.6004 113.7 67.0004 118.1 69.2004 124.6L69.4004 125.3C66.6641 124.178 64.3536 122.217 62.8004 119.7C61.1198 117.146 60.2166 114.158 60.2004 111.1C60.2004 109.6 60.2004 108.1 60.0004 106.6C59.5004 102.9 57.8004 101.3 54.5004 101.2C51.2004 101.1 48.6004 103.2 47.9004 106.4L47.7004 107.1Z" fill="url(#paint0_linear_2460_34)"/>
<defs>
<linearGradient id="paint0_linear_2460_34" x1="64.7004" y1="119.2" x2="77.4004" y2="77.4002" gradientUnits="userSpaceOnUse">
<stop stop-color="#D83333"/>
<stop offset="1" stop-color="#F041FF"/>
</linearGradient>
</defs>
</svg>
